<svg xmlns="http://www.w3.org/2000/svg" xmlns:xlink="http://www.w3.org/1999/xlink" width="300" zoomAndPan="magnify" viewBox="0 0 224.87999 112.499997" height="150" preserveAspectRatio="xMidYMid meet" version="1.0"><defs><g/></defs><g fill="#ffffff" fill-opacity="1"><g transform="translate(9.957973, 73.918243)"><g><path d="M 27.625 -9.125 C 27.625 -3.039062 23.257812 0 14.53125 0 L 3.375 0 L 3.375 -33.8125 L 13.421875 -33.8125 C 17.023438 -33.8125 20.019531 -33.359375 22.40625 -32.453125 C 25.207031 -31.359375 26.609375 -29.039062 26.609375 -25.5 C 26.609375 -23.632812 26.007812 -22.132812 24.8125 -21 C 23.625 -19.875 21.90625 -18.910156 19.65625 -18.109375 C 24.96875 -16.304688 27.625 -13.3125 27.625 -9.125 Z M 12.703125 -1.640625 C 15.273438 -1.640625 17.15625 -2.273438 18.34375 -3.546875 C 19.539062 -4.816406 20.140625 -6.738281 20.140625 -9.3125 C 20.140625 -11.894531 19.554688 -13.859375 18.390625 -15.203125 C 17.234375 -16.554688 15.804688 -17.234375 14.109375 -17.234375 L 11.015625 -17.234375 L 11.015625 -1.640625 Z M 19.21875 -25.796875 C 19.21875 -28.660156 18.476562 -30.460938 17 -31.203125 C 15.738281 -31.847656 14.082031 -32.171875 12.03125 -32.171875 L 11.015625 -32.171875 L 11.015625 -18.734375 L 13.046875 -18.734375 C 17.160156 -18.734375 19.21875 -21.085938 19.21875 -25.796875 Z M 19.21875 -25.796875 "/></g></g></g><g fill="#ffffff" fill-opacity="1"><g transform="translate(39.518151, 73.918243)"><g><path d="M 10.578125 -1.9375 C 11.222656 -1.9375 11.738281 -2.453125 12.125 -3.484375 L 13.046875 -3.328125 C 13.046875 -3.003906 12.921875 -2.59375 12.671875 -2.09375 C 12.429688 -1.601562 12.148438 -1.195312 11.828125 -0.875 C 10.992188 0.03125 9.738281 0.484375 8.0625 0.484375 C 4.613281 0.484375 2.890625 -1.109375 2.890625 -4.296875 L 2.890625 -33.328125 L 9.46875 -33.328125 L 9.46875 -3.578125 C 9.46875 -2.484375 9.835938 -1.9375 10.578125 -1.9375 Z M 10.578125 -1.9375 "/></g></g></g><g fill="#ffffff" fill-opacity="1"><g transform="translate(52.800913, 73.918243)"><g><path d="M 18.359375 -22.703125 L 12.359375 0 L 5.84375 0 L 0.234375 -22.703125 L 6.71875 -22.703125 L 11.59375 -3 L 16.8125 -22.703125 Z M 18.359375 -22.703125 "/></g></g></g><g fill="#ffffff" fill-opacity="1"><g transform="translate(71.396772, 73.918243)"><g><path d="M 17.828125 -5.890625 C 17.828125 -4.503906 17.257812 -3.09375 16.125 -1.65625 C 15 -0.226562 13.441406 0.484375 11.453125 0.484375 C 8.804688 0.484375 6.640625 -0.265625 4.953125 -1.765625 C 3.265625 -3.265625 2.421875 -5.203125 2.421875 -7.578125 L 2.421875 -15.109375 C 2.421875 -17.492188 3.269531 -19.4375 4.96875 -20.9375 C 6.675781 -22.4375 8.816406 -23.1875 11.390625 -23.1875 C 12.390625 -23.1875 13.289062 -23 14.09375 -22.625 C 14.90625 -22.257812 15.535156 -21.816406 15.984375 -21.296875 C 16.429688 -20.785156 16.800781 -20.222656 17.09375 -19.609375 C 17.582031 -18.546875 17.828125 -17.628906 17.828125 -16.859375 L 16.375 -16.859375 C 16.375 -17.890625 15.976562 -18.957031 15.1875 -20.0625 C 14.394531 -21.175781 13.359375 -21.734375 12.078125 -21.734375 C 10.046875 -21.734375 9.03125 -20.15625 9.03125 -17 L 9.03125 -5.703125 C 9.03125 -4.253906 9.300781 -3.101562 9.84375 -2.25 C 10.394531 -1.394531 11.234375 -0.96875 12.359375 -0.96875 C 13.484375 -0.96875 14.429688 -1.585938 15.203125 -2.828125 C 15.984375 -4.066406 16.375 -5.085938 16.375 -5.890625 Z M 17.828125 -5.890625 "/></g></g></g><g fill="#ffffff" fill-opacity="1"><g transform="translate(90.910351, 73.918243)"><g><path d="M 19.515625 -5.015625 L 19.515625 0 L 13.375 0 L 13.375 -6.765625 C 13.375 -7.796875 13.148438 -8.695312 12.703125 -9.46875 C 12.253906 -10.238281 11.640625 -10.753906 10.859375 -11.015625 L 9.46875 -11.25 L 9.46875 0 L 2.890625 0 L 2.890625 -33.328125 L 9.46875 -33.328125 L 9.46875 -14.921875 L 15.640625 -22.703125 L 19.359375 -22.703125 L 11.203125 -12.40625 C 13.648438 -12.082031 15.644531 -11.238281 17.1875 -9.875 C 18.738281 -8.507812 19.515625 -6.890625 19.515625 -5.015625 Z M 19.515625 -5.015625 "/></g></g></g><g fill="#ffffff" fill-opacity="1"><g transform="translate(112.358322, 73.918243)"><g><path d="M 23.5625 -10.1875 C 23.5625 -7.195312 22.382812 -4.671875 20.03125 -2.609375 C 17.6875 -0.546875 14.859375 0.484375 11.546875 0.484375 C 5.941406 0.484375 3.140625 -1.65625 3.140625 -5.9375 C 3.140625 -6.707031 3.285156 -7.691406 3.578125 -8.890625 L 7.390625 -8.890625 C 7.035156 -7.273438 6.859375 -6.097656 6.859375 -5.359375 C 6.859375 -2.585938 8.453125 -1.203125 11.640625 -1.203125 C 13.503906 -1.203125 15.128906 -1.804688 16.515625 -3.015625 C 17.898438 -4.222656 18.59375 -5.742188 18.59375 -7.578125 C 18.59375 -8.484375 18.253906 -9.289062 17.578125 -10 L 9.515625 -18.59375 C 8.453125 -19.6875 7.921875 -21.148438 7.921875 -22.984375 C 7.921875 -25.847656 8.957031 -28.367188 11.03125 -30.546875 C 13.113281 -32.722656 15.75 -33.8125 18.9375 -33.8125 C 21.21875 -33.8125 22.910156 -33.296875 24.015625 -32.265625 C 25.128906 -31.234375 25.6875 -29.992188 25.6875 -28.546875 L 25.59375 -27.1875 L 24 -27.1875 C 24.03125 -27.382812 24.046875 -27.59375 24.046875 -27.8125 C 24.046875 -28.875 23.660156 -29.859375 22.890625 -30.765625 C 22.117188 -31.671875 20.851562 -32.125 19.09375 -32.125 C 17.34375 -32.125 15.835938 -31.523438 14.578125 -30.328125 C 13.328125 -29.140625 12.703125 -27.53125 12.703125 -25.5 C 12.703125 -24.375 13.054688 -23.441406 13.765625 -22.703125 L 22.078125 -13.8125 C 23.066406 -12.78125 23.5625 -11.570312 23.5625 -10.1875 Z M 23.5625 -10.1875 "/></g></g></g><g fill="#ffffff" fill-opacity="1"><g transform="translate(135.639374, 73.918243)"><g><path d="M 18.734375 -2.75 C 18.734375 -2.207031 19.039062 -1.9375 19.65625 -1.9375 C 20.269531 -1.9375 20.863281 -2.453125 21.4375 -3.484375 L 22.3125 -3.328125 C 21.757812 -1.722656 20.84375 -0.582031 19.5625 0.09375 C 19.007812 0.351562 18.410156 0.484375 17.765625 0.484375 C 15.640625 0.484375 14.578125 -0.53125 14.578125 -2.5625 C 14.578125 -2.945312 14.644531 -3.523438 14.78125 -4.296875 L 17.53125 -17.1875 C 17.726562 -18 17.828125 -18.707031 17.828125 -19.3125 C 17.828125 -20.925781 17.097656 -21.734375 15.640625 -21.734375 C 14.390625 -21.734375 13.289062 -21.171875 12.34375 -20.046875 C 11.394531 -18.921875 10.757812 -17.613281 10.4375 -16.125 L 7.046875 0 L 2.890625 0 L 9.953125 -33.328125 L 14.109375 -33.328125 L 11.25 -19.890625 C 12.664062 -22.085938 14.503906 -23.1875 16.765625 -23.1875 C 18.304688 -23.1875 19.507812 -22.722656 20.375 -21.796875 C 21.25 -20.878906 21.6875 -19.601562 21.6875 -17.96875 C 21.6875 -17.226562 21.585938 -16.421875 21.390625 -15.546875 C 19.617188 -7.273438 18.734375 -3.007812 18.734375 -2.75 Z M 18.734375 -2.75 "/></g></g></g><g fill="#ffffff" fill-opacity="1"><g transform="translate(157.519704, 73.918243)"><g><path d="M 7.53125 -3.8125 C 7.53125 -1.914062 8.5625 -0.96875 10.625 -0.96875 C 12.007812 -0.96875 13.179688 -1.53125 14.140625 -2.65625 C 15.109375 -3.78125 15.675781 -4.742188 15.84375 -5.546875 L 16.90625 -5.546875 C 16.707031 -4.523438 16.078125 -3.335938 15.015625 -1.984375 C 14.472656 -1.273438 13.722656 -0.6875 12.765625 -0.21875 C 11.816406 0.25 10.78125 0.484375 9.65625 0.484375 C 5.695312 0.484375 3.71875 -1.367188 3.71875 -5.078125 C 3.71875 -5.878906 3.816406 -6.710938 4.015625 -7.578125 L 5.609375 -15.171875 C 6.117188 -17.515625 7.175781 -19.4375 8.78125 -20.9375 C 10.394531 -22.4375 12.441406 -23.1875 14.921875 -23.1875 C 18.140625 -23.1875 19.75 -21.445312 19.75 -17.96875 C 19.75 -17.195312 19.640625 -16.210938 19.421875 -15.015625 L 18.59375 -11.203125 L 8.9375 -11.203125 L 7.78125 -5.703125 C 7.613281 -4.960938 7.53125 -4.332031 7.53125 -3.8125 Z M 17.296875 -18.828125 C 17.296875 -20.765625 16.425781 -21.734375 14.6875 -21.734375 C 12.363281 -21.734375 10.863281 -20.171875 10.1875 -17.046875 L 9.21875 -12.65625 L 16.125 -12.65625 L 17.09375 -17.046875 C 17.226562 -17.660156 17.296875 -18.253906 17.296875 -18.828125 Z M 17.296875 -18.828125 "/></g></g></g><g fill="#ffffff" fill-opacity="1"><g transform="translate(175.922364, 73.918243)"><g><path d="M 7.53125 -3.8125 C 7.53125 -1.914062 8.5625 -0.96875 10.625 -0.96875 C 12.007812 -0.96875 13.179688 -1.53125 14.140625 -2.65625 C 15.109375 -3.78125 15.675781 -4.742188 15.84375 -5.546875 L 16.90625 -5.546875 C 16.707031 -4.523438 16.078125 -3.335938 15.015625 -1.984375 C 14.472656 -1.273438 13.722656 -0.6875 12.765625 -0.21875 C 11.816406 0.25 10.78125 0.484375 9.65625 0.484375 C 5.695312 0.484375 3.71875 -1.367188 3.71875 -5.078125 C 3.71875 -5.878906 3.816406 -6.710938 4.015625 -7.578125 L 5.609375 -15.171875 C 6.117188 -17.515625 7.175781 -19.4375 8.78125 -20.9375 C 10.394531 -22.4375 12.441406 -23.1875 14.921875 -23.1875 C 18.140625 -23.1875 19.75 -21.445312 19.75 -17.96875 C 19.75 -17.195312 19.640625 -16.210938 19.421875 -15.015625 L 18.59375 -11.203125 L 8.9375 -11.203125 L 7.78125 -5.703125 C 7.613281 -4.960938 7.53125 -4.332031 7.53125 -3.8125 Z M 17.296875 -18.828125 C 17.296875 -20.765625 16.425781 -21.734375 14.6875 -21.734375 C 12.363281 -21.734375 10.863281 -20.171875 10.1875 -17.046875 L 9.21875 -12.65625 L 16.125 -12.65625 L 17.09375 -17.046875 C 17.226562 -17.660156 17.296875 -18.253906 17.296875 -18.828125 Z M 17.296875 -18.828125 "/></g></g></g><g fill="#ffffff" fill-opacity="1"><g transform="translate(194.325025, 73.918243)"><g><path d="M 19.65625 -7.203125 C 19.175781 -4.878906 18.207031 -3.015625 16.75 -1.609375 C 15.300781 -0.210938 13.539062 0.484375 11.46875 0.484375 C 9.394531 0.484375 8.113281 -0.625 7.625 -2.84375 L 5.546875 7 L 1.40625 7 L 7.671875 -22.703125 L 11.828125 -22.703125 L 11.25 -19.84375 C 12.664062 -22.070312 14.503906 -23.1875 16.765625 -23.1875 C 18.335938 -23.1875 19.554688 -22.71875 20.421875 -21.78125 C 21.296875 -20.84375 21.734375 -19.554688 21.734375 -17.921875 C 21.734375 -17.242188 21.632812 -16.453125 21.4375 -15.546875 Z M 17.765625 -19.265625 C 17.765625 -20.910156 17.097656 -21.734375 15.765625 -21.734375 C 14.429688 -21.734375 13.289062 -21.191406 12.34375 -20.109375 C 11.394531 -19.035156 10.757812 -17.707031 10.4375 -16.125 L 8.453125 -6.609375 C 8.328125 -6.097656 8.265625 -5.40625 8.265625 -4.53125 C 8.265625 -3.664062 8.507812 -2.867188 9 -2.140625 C 9.5 -1.421875 10.25 -1.0625 11.25 -1.0625 C 13.15625 -1.0625 14.425781 -2.554688 15.0625 -5.546875 L 17.53125 -17.1875 C 17.6875 -18 17.765625 -18.691406 17.765625 -19.265625 Z M 17.765625 -19.265625 "/></g></g></g></svg>